<svg xmlns="http://www.w3.org/2000/svg" viewBox="0 0 1200 670">
  <defs>
    <linearGradient id="g" x1="0" x2="1" y1="0" y2="1">
      <stop stop-color="#0b1220"/>
      <stop offset=".55" stop-color="#111827"/>
      <stop offset="1" stop-color="#3d220d"/>
    </linearGradient>
    <radialGradient id="r" cx=".5" cy=".2" r=".8">
      <stop stop-color="#38bdf8" stop-opacity=".42"/>
      <stop offset=".38" stop-color="#111827" stop-opacity=".3"/>
      <stop offset="1" stop-color="#000" stop-opacity=".85"/>
    </radialGradient>
  </defs>
  <rect width="1200" height="670" fill="url(#g)"/>
  <rect width="1200" height="670" fill="url(#r)"/>
  <path d="M0 470c165-70 314-98 483-84 124 10 199 62 318 78 151 19 267-28 399-70v276H0z" fill="#0a0d14" opacity=".9"/>
  <path d="M80 160h250v180H80zM870 150h250v190H870z" fill="#1f2937" opacity=".75"/>
  <path d="M116 194h174M116 232h142M116 270h190M910 190h160M910 230h120M910 270h170" stroke="#bad0ef" stroke-width="8" opacity=".42"/>
  <path d="M590 260c44 0 80 37 80 83v118H510V343c0-46 36-83 80-83z" fill="#111827"/>
  <circle cx="590" cy="230" r="42" fill="#f59e0b"/>
  <path d="M430 520c90-65 229-65 320 0" fill="none" stroke="#f59e0b" stroke-width="42" opacity=".7"/>
  <g fill="#0f172a" opacity=".95">
    <circle cx="160" cy="510" r="36"/><circle cx="230" cy="500" r="34"/><circle cx="300" cy="520" r="38"/>
    <circle cx="900" cy="510" r="34"/><circle cx="970" cy="500" r="38"/><circle cx="1040" cy="518" r="36"/>
  </g>
  <g stroke="#38bdf8" stroke-width="3" opacity=".65">
    <path d="M420 96h360M470 130h260M515 164h170"/>
  </g>
  <g fill="#fff8">
    <circle cx="418" cy="98" r="4"/><circle cx="782" cy="98" r="4"/><circle cx="600" cy="166" r="5"/>
  </g>
</svg>
